<svg xmlns="http://www.w3.org/2000/svg" width="42" height="42" fill="none" class="after-effects-40-2025" viewBox="0 0 42 42"><path fill="#00005B" d="M34.468 0H7.532A7.53 7.53 0 0 0 0 7.532v26.936A7.53 7.53 0 0 0 7.532 42h26.936A7.53 7.53 0 0 0 42 34.468V7.532A7.53 7.53 0 0 0 34.468 0"/><path fill="#99F" d="M10.734 11.149h6.184l6.935 19.36H18.19l-.954-2.947H9.983l-.954 2.947H3.597zm5 11.818-2.11-6.501-2.11 6.501zM38.403 22.534c0 .693-.057 1.445-.144 2.023h-9.45c.578 1.445 1.966 2.138 4.133 2.138 1.56 0 2.918-.289 4.276-.925l.058 4.017c-1.473.751-3.063 1.011-5.114 1.011-5.057 0-8.438-2.803-8.438-7.888 0-4.653 3.236-7.745 7.513-7.745 4.392 0 7.166 2.832 7.166 7.369m-9.767-1.272h5.057c-.115-1.358-.953-2.311-2.427-2.311-1.416 0-2.312.751-2.63 2.311"/></svg>