<svg xmlns="http://www.w3.org/2000/svg" viewBox="0 0 240 234"><rect width="240" height="234" fill="#00005b" class="cls-1" rx="42.5"/><g fill="#99f"><path d="M97.043 140h-37.19l-7.638 23.468a1.894 1.894 0 0 1-1.933 1.449H31.445q-1.61 0-1.127-1.771l32.334-92.27c.323-.966.644-1.827.967-3.062a34.478 34.478 0 0 0 .644-6.52.996.996 0 0 1 1.127-1.127h25.598q1.125 0 1.288.805l36.414 102.335q.482 1.61-.967 1.61h-20.93a1.488 1.488 0 0 1-1.61-1.127Zm-31.332-19.858H91.15q-.966-3.218-2.253-7.245-1.291-4.022-2.737-8.613l-2.899-9.177q-1.448-4.589-2.656-8.855-1.208-4.264-2.173-7.809h-.161a130.107 130.107 0 0 1-3.381 12.88q-2.257 7.245-4.59 14.812-2.335 7.57-4.588 14.007ZM139.96 163.384v-59.342q0-2.735-.08-6.118-.084-3.38-.242-6.44c-.108-2.037-.216-3.93-.322-5.113a.956.956 0 0 1 .16-.966 1.314 1.314 0 0 1 .967-.322h16.072a3.6 3.6 0 0 1 1.61.322 1.516 1.516 0 0 1 .805 1.127q.32.966.724 2.174a16.526 16.526 0 0 1 .564 3.261 32.345 32.345 0 0 1 10.626-6.198 36.574 36.574 0 0 1 12.075-2.013 30.627 30.627 0 0 1 9.418 1.53 23.793 23.793 0 0 1 15.215 14.812c1.61 4.133 2.241 9.474 2.241 16.02v47.266q0 1.45-1.288 1.45l-18.813.166a1.422 1.422 0 0 1-1.61-1.61v-44.846a22.197 22.197 0 0 0-1.943-8.706 11.504 11.504 0 0 0-4.106-4.99 12.116 12.116 0 0 0-6.842-1.772 20.031 20.031 0 0 0-7.567 1.369 19.088 19.088 0 0 0-5.957 3.783v55.156q0 1.45-1.288 1.45h-18.97a1.28 1.28 0 0 1-1.45-1.45Z" class="cls-2"/></g></svg>