<svg xmlns="http://www.w3.org/2000/svg" width="240" height="240" fill="none" class="audition-2025" viewBox="0 0 240 240"><path fill="#00005B" d="M196.959 0H43.041C19.271 0 0 19.27 0 43.041V196.96C0 220.73 19.27 240 43.041 240H196.96C220.73 240 240 220.73 240 196.959V43.041C240 19.271 220.73 0 196.959 0"/><path fill="#99F" d="M59.72 63.706h35.336l39.629 110.633h-32.363l-5.45-16.843H55.428l-5.45 16.843H18.934zm28.566 67.535L76.232 94.088l-12.054 37.153zM137.677 141.149V88.144h28.897v51.684c0 9.247 4.458 13.045 11.889 13.045 3.467 0 6.439-.165 8.916-1.156V88.144h28.897v78.929c-11.064 5.615-22.953 9.082-37.979 9.082-28.236 0-40.62-11.228-40.62-35.006"/></svg>