<svg xmlns="http://www.w3.org/2000/svg" width="240" height="240" fill="none" class="bridge-2025" viewBox="0 0 240 240"><path fill="#000B1D" d="M196.959 0H43.041C19.271 0 0 19.27 0 43.041V196.96C0 220.73 19.27 240 43.041 240H196.96C220.73 240 240 220.73 240 196.959V43.041C240 19.271 220.73 0 196.959 0"/><path fill="#fff" d="M48.198 63.706h52.179c26.089 0 38.969 13.375 38.969 29.227 0 10.733-3.633 18.494-12.549 23.282 9.907 4.128 16.182 11.559 16.347 23.943.165 19.98-16.017 34.181-46.565 34.181H48.2zm48.712 43.427c7.265 0 11.723-3.137 11.723-9.577 0-5.944-3.797-9.412-12.053-9.412H78.746v18.989zm.495 42.767c7.926 0 14.035-2.972 14.035-10.568 0-6.109-3.632-10.237-13.045-10.237H78.746V149.9zM189.414 86.658c6.77 0 12.219.826 14.696 1.651v22.457c-1.982-.495-5.78-.826-8.917-.826-6.109 0-9.577.496-12.715 1.652v62.747h-28.896V93.924c10.402-4.624 20.806-7.266 35.832-7.266"/></svg>