<svg xmlns="http://www.w3.org/2000/svg" viewBox="0 0 240 234"><rect width="240" height="234" fill="#00005b" class="cls-1" rx="42.5"/><path fill="#99f" d="M114.833 145.258v16.583a2.124 2.124 0 0 1-1.287 2.254 40.743 40.743 0 0 1-9.483 2.174 103.546 103.546 0 0 1-12.639.724 71.176 71.176 0 0 1-17.79-2.173 52.601 52.601 0 0 1-15.376-6.601 46.892 46.892 0 0 1-11.913-10.868 48.171 48.171 0 0 1-7.728-14.973 63.083 63.083 0 0 1-2.738-19.32q0-16.26 7.084-28.577a48.838 48.838 0 0 1 20.125-19.16 66.095 66.095 0 0 1 31.074-7.238 101.806 101.806 0 0 1 12.477.644 37.349 37.349 0 0 1 8.452 1.932 2.072 2.072 0 0 1 .806 1.932v18.106c0 .966-.378 1.288-1.127.966a35.61 35.61 0 0 0-9.613-2.931 73.875 73.875 0 0 0-11.753-.886 36.767 36.767 0 0 0-18.402 4.461 30.144 30.144 0 0 0-11.914 11.995 37.16 37.16 0 0 0-4.186 18.112 39.193 39.193 0 0 0 2.013 13.202 31.305 31.305 0 0 0 5.555 9.821 27.513 27.513 0 0 0 8.05 6.601 39.613 39.613 0 0 0 9.58 3.623 43.452 43.452 0 0 0 9.9 1.506 108.584 108.584 0 0 0 10.868-.483 37.492 37.492 0 0 0 8.678-2.23q.64-.484.966-.242a1.281 1.281 0 0 1 .321 1.046ZM151.8 107.262v56.45c0 .86-.378 1.288-1.127 1.288h-20.09a1.28 1.28 0 0 1-1.449-1.449V52.361c0-.75.428-1.127 1.288-1.127h20.25a.997.997 0 0 1 1.128 1.127l.117 37.996a46.019 46.019 0 0 1 9.301-4.75c3.381-1.232 7.325-1.524 11.834-1.524a32.154 32.154 0 0 1 9.418 1.45 22.339 22.339 0 0 1 8.775 4.744c2.681 2.415 4.563 5.69 6.173 9.82q2.415 6.2 2.415 16.02v47.434q0 1.45-1.288 1.449h-18.852a1.422 1.422 0 0 1-1.61-1.61V118.37a20.193 20.193 0 0 0-1.53-8.452 11.978 11.978 0 0 0-4.185-5.072 13.74 13.74 0 0 0-7.367-1.77 23.842 23.842 0 0 0-7.084 1.046 19.515 19.515 0 0 0-6.117 3.14Z" class="cls-2"/></svg>