<svg xmlns="http://www.w3.org/2000/svg" width="240" height="234" viewBox="0 0 240 234"><rect width="240" height="234" fill="#1e3101" class="cls-1" rx="42.5"/><g fill="#99e83f"><path d="M34.978 163.773V61.377a1.173 1.173 0 0 1 1.051-1.283l.076-.005q2.415-.158 7.084-.241 4.667-.08 10.948-.161 6.279-.08 13.363-.08 19.32 0 32.039 6.6a44.588 44.588 0 0 1 19.078 18.113q6.358 11.512 6.36 26.484a59.077 59.077 0 0 1-3.3 20.528 47.887 47.887 0 0 1-9.017 15.375 53.611 53.611 0 0 1-12.96 10.707 57.007 57.007 0 0 1-15.457 6.279 68.039 68.039 0 0 1-16.26 2.012H55.988q-6.362 0-11.833-.08-5.475-.083-8.211-.242-.966 0-.966-1.61ZM57.196 79.41v66.654q1.77 0 3.22.08 1.449.084 2.978.162 1.528.083 3.462.08a43.125 43.125 0 0 0 14.329-2.254 29.31 29.31 0 0 0 11.028-6.762 30.372 30.372 0 0 0 7.084-11.109 42.135 42.135 0 0 0 2.496-14.973A37.783 37.783 0 0 0 99.378 97.2a26.67 26.67 0 0 0-7.004-10.143 28.675 28.675 0 0 0-10.948-6.038A47.746 47.746 0 0 0 67.5 79.087q-3.223 0-5.394.08-2.174.084-4.91.242ZM134.817 163.934v-59.892q0-2.735-.08-6.118-.084-3.38-.243-6.44-.161-3.056-.321-4.83a.956.956 0 0 1 .16-.966 1.312 1.312 0 0 1 .967-.322h16.744a3.597 3.597 0 0 1 1.61.322 1.517 1.517 0 0 1 .805 1.127q.32.966.724 2.174a13.555 13.555 0 0 1 .564 2.978 32.335 32.335 0 0 1 10.626-6.198 36.569 36.569 0 0 1 12.075-2.013 30.625 30.625 0 0 1 9.418 1.53 23.795 23.795 0 0 1 15.215 14.812q2.415 6.2 2.415 16.02v47.816q0 1.45-1.288 1.45h-19.481a1.423 1.423 0 0 1-1.61-1.61v-45.725a20.11 20.11 0 0 0-1.45-8.21 11.507 11.507 0 0 0-4.105-4.992 12.116 12.116 0 0 0-6.843-1.77 20.033 20.033 0 0 0-7.566 1.368 19.099 19.099 0 0 0-5.957 3.783v55.706q0 1.45-1.289 1.45h-19.642a1.28 1.28 0 0 1-1.448-1.45Z" class="cls-2"/></g></svg>