<svg xmlns="http://www.w3.org/2000/svg" xml:space="preserve" x="0px" y="0px" style="enable-background:new 0 0 240 234" viewBox="0 0 240 234"><path fill="#470137" d="M42.5 0h155C221 0 240 19 240 42.5v149c0 23.5-19 42.5-42.5 42.5h-155C19 234 0 215 0 191.5v-149C0 19 19 0 42.5 0z" class="st0"/><g fill="#FF61F6"><path d="M22.8 163.8V61.4c-.1-.6.4-1.2 1-1.3h.1c1.5-.1 3.8-.2 6.7-.2 3-.1 6.4-.1 10.4-.2s8.2-.1 12.7-.1c12.2 0 22.4 2.2 30.4 6.6 7.7 4.1 14 10.4 18.1 18.1 4 7.7 6 16.5 6 26.5.1 7-.9 13.9-3.1 20.5-1.9 5.6-4.8 10.8-8.6 15.4-3.5 4.2-7.7 7.8-12.3 10.7-4.5 2.8-9.5 4.9-14.7 6.3-5 1.3-10.2 2-15.4 2H42.8c-4 0-7.8 0-11.2-.1-3.5-.1-6.1-.1-7.8-.2-.7 0-1-.6-1-1.6zm21.1-84.4v66.7c1.1 0 2.1 0 3.1.1.9.1 1.9.1 2.8.2 1 .1 2.1.1 3.3.1 4.6.1 9.2-.7 13.6-2.3 4-1.4 7.5-3.7 10.5-6.8 3-3.2 5.3-7 6.7-11.1 1.6-4.8 2.4-9.9 2.4-15 .1-4.8-.7-9.6-2.3-14.1-2.8-7.8-9.1-13.8-17.1-16.2-4.3-1.3-8.7-2-13.2-1.9-2 0-3.7 0-5.1.1-1.4 0-3 .1-4.7.2zM197.8 165.4h-18.7c-.4.1-.9-.1-1.2-.4-.3-.4-.5-.8-.6-1.2-1.9-8-3.5-15.2-4.8-21.3-1.3-6.2-2.4-11.4-3.2-15.7-.8-4.3-1.5-7.9-2.1-10.9-.5-3-1-5.5-1.3-7.6h-.1c-1 4.4-1.9 8.7-2.8 12.8-.8 4.1-1.8 8.3-2.8 12.5-1 4.2-2.1 8.8-3.4 13.8-1.2 5-2.6 10.5-4.1 16.4-.2 1.1-.7 1.6-1.6 1.6h-18.7c-.5.1-1-.1-1.4-.3-.3-.3-.5-.7-.7-1.1l-19.5-77.3c-.3-.9.1-1.3 1.2-1.3h18.9c.9 0 1.4.3 1.5 1 2 8.8 3.7 16.4 5 22.8 1.3 6.4 2.4 11.8 3.1 16.3.7 4.5 1.4 8.2 1.9 11 .5 2.8.9 5.2 1.2 7h.3c.2-1.6.4-3.1.7-4.7.4-1.9.9-4.4 1.5-7.5.6-3.1 1.3-6.7 2.2-10.9.9-4.2 1.9-9 3.1-14.6 1.1-5.5 2.7-11.8 4.6-18.9 0-.4.2-.9.4-1.3.1-.2.5-.3 1.1-.3h19.6c.6 0 .9.4 1 1.1 1.7 7.3 3.1 13.7 4.3 19.2 1.1 5.5 2.1 10.4 3 14.7.8 4.2 1.5 7.9 1.9 10.9.4 3.1.9 5.6 1.3 7.7.3 1.7.6 3.4.7 5.1h.3c.5-2 .9-4.4 1.3-7.1.4-2.7.9-5.7 1.6-9.1.6-3.4 1.3-7.1 2.1-11.2.7-4.1 1.7-8.6 2.8-13.7 1.1-5 2.3-10.5 3.7-16.4.2-.9.6-1.3 1.3-1.3h17.5c.9 0 1.2.5 1 1.4l-21.6 77.1c-.1.4-.3.8-.6 1.1 0 .5-.4.7-.9.6z" class="st1"/></g></svg>