<svg xmlns="http://www.w3.org/2000/svg" width="54" height="54" fill="none" class="firefly-appicon-55-2025" viewBox="0 0 54 54"><path fill="#EB1000" d="M44.316 0H9.684C4.336 0 0 4.336 0 9.684v34.632C0 49.664 4.336 54 9.684 54h34.632C49.664 54 54 49.664 54 44.316V9.684C54 4.336 49.664 0 44.316 0"/><path fill="#fff" d="M13.678 14.334h18.167v5.907H20.588v4.273h9.957v5.907h-9.957v8.805h-6.91zM34.23 19.833h6.5v19.393h-6.5zM38.623 16.209l2.318.52c.911.206 1.544-.885.91-1.571l-1.611-1.742a.95.95 0 0 1-.229-.854l.522-2.312c.206-.908-.888-1.54-1.576-.906l-1.746 1.606a.96.96 0 0 1-.856.228l-2.318-.52c-.91-.206-1.544.885-.909 1.572l1.61 1.741c.212.23.298.548.23.854l-.523 2.312c-.206.909.888 1.54 1.577.907l1.746-1.607a.96.96 0 0 1 .855-.228"/></svg>