<svg xmlns="http://www.w3.org/2000/svg" width="240" height="240" fill="none" class="incopy-2025" viewBox="0 0 240 240"><path fill="#49021F" d="M196.959 0H43.041C19.271 0 0 19.27 0 43.041V196.96C0 220.73 19.27 240 43.041 240H196.96C220.73 240 240 220.73 240 196.959V43.041C240 19.271 220.73 0 196.959 0"/><path fill="#F36" d="M67.428 63.706H98.14v110.633H67.428zM176.675 114.069c-5.119-2.807-10.898-4.129-17.669-4.129-12.053 0-21.3 7.266-21.3 21.136s9.081 21.136 21.466 21.136c7.595 0 12.549-1.156 17.503-3.798v23.613c-6.11 2.807-13.21 3.963-22.127 3.963-27.41 0-45.904-17.668-45.904-44.749 0-28.071 21.136-44.583 46.565-44.583 8.751 0 15.686.826 21.466 3.633z"/></svg>