<svg xmlns="http://www.w3.org/2000/svg" width="42" height="42" fill="none" class="indesign-40-2025" viewBox="0 0 42 42"><path fill="#49021F" d="M34.468 0H7.532A7.53 7.53 0 0 0 0 7.532v26.936A7.53 7.53 0 0 0 7.532 42h26.936A7.53 7.53 0 0 0 42 34.468V7.532A7.53 7.53 0 0 0 34.468 0"/><path fill="#F36" d="M10.126 11.149h5.375v19.36h-5.375zM17.339 23.054c0-5.26 3.93-7.889 8.004-7.889.55 0 1.127.058 1.474.116v-4.74h5.057v18.986c-1.214.607-3.612 1.242-6.213 1.242-4.45 0-8.322-2.514-8.322-7.715m9.478 3.496v-7.08a4.2 4.2 0 0 0-1.358-.201c-1.59 0-3.063.924-3.063 3.698 0 2.543 1.329 3.699 3.092 3.699.404 0 .953-.029 1.329-.116"/></svg>