<svg xmlns="http://www.w3.org/2000/svg" width="240" height="240" fill="none" class="lightroom-2025" viewBox="0 0 240 240"><path fill="#001E36" d="M196.959 0H43.041C19.271 0 0 19.27 0 43.041V196.96C0 220.73 19.27 240 43.041 240H196.96C220.73 240 240 220.73 240 196.959V43.041C240 19.271 220.73 0 196.959 0"/><path fill="#31A8FF" d="M53.193 63.709h30.713v84.378h50.858v26.255h-81.57zm127.31 22.952c6.771 0 12.219.826 14.696 1.651v22.457c-1.981-.495-5.779-.826-8.916-.826-6.11 0-9.577.496-12.715 1.652v62.747h-28.897V93.926c10.403-4.623 20.806-7.265 35.832-7.265"/></svg>