<svg xmlns="http://www.w3.org/2000/svg" width="240" height="240" fill="none" class="mediaencoder-2025" viewBox="0 0 240 240"><path fill="#00005B" d="M196.959 0H43.041C19.271 0 0 19.27 0 43.041V196.96C0 220.73 19.27 240 43.041 240H196.96C220.73 240 240 220.73 240 196.959V43.041C240 19.271 220.73 0 196.959 0"/><path fill="#99F" d="m60.9 63.706 14.697 52.839 15.851-52.84h34.512l6.935 110.634h-29.558l-1.486-42.107c-.33-10.568-.66-21.136-.991-31.869l-16.677 65.389H64.368l-14.695-62.086c-.496 9.577-.826 19.154-1.156 28.566l-1.983 42.107h-27.74L26.06 63.706zM223.847 128.765c0 3.963-.33 8.256-.825 11.558h-53.996c3.303 8.256 11.228 12.219 23.613 12.219 8.916 0 16.677-1.651 24.438-5.284l.33 22.953c-8.421 4.293-17.503 5.779-29.226 5.779-28.897 0-48.217-16.017-48.217-45.079 0-26.585 18.495-44.253 42.933-44.253 25.098 0 40.95 16.182 40.95 42.107m-55.812-7.266h28.897c-.66-7.761-5.449-13.21-13.87-13.21-8.092 0-13.21 4.293-15.027 13.21"/></svg>