<svg xmlns="http://www.w3.org/2000/svg" width="64" height="64" fill="none" class="photoshop-64-2025" viewBox="0 0 64 64"><path fill="#001E36" d="M52.522 0H11.478C5.138 0 0 5.139 0 11.478v41.044C0 58.862 5.139 64 11.478 64h41.044C58.862 64 64 58.861 64 52.522V11.478C64 5.138 58.861 0 52.522 0"/><path fill="#31A8FF" d="M22.348 16.988c8.367 0 13.078 3.92 13.078 10.48 0 7.662-6.385 10.744-12.373 10.744h-4.051v8.278h-8.19V16.988zm-3.346 7.001v7.222h3.61c2.51 0 4.272-1.013 4.272-3.567 0-2.333-1.497-3.655-4.095-3.655zM37.09 45.037l.045-6.825c2.334 1.541 5.592 2.51 7.838 2.51 1.54 0 2.246-.44 2.246-1.233 0-.88-.97-1.233-2.819-1.805-3.566-1.057-7.485-2.51-7.485-7.178 0-4.755 3.919-7.397 9.599-7.397 2.686 0 4.888.396 6.825 1.233l-.044 6.517c-1.541-.925-4.58-1.762-6.561-1.762-1.453 0-2.025.44-2.025 1.101 0 .793.704 1.013 2.818 1.673 4.095 1.233 7.53 2.554 7.53 7.354 0 4.58-3.743 7.662-9.6 7.662-3.082 0-5.988-.529-8.366-1.85"/></svg>