<svg xmlns="http://www.w3.org/2000/svg" width="64" height="64" fill="none" class="premiere-pro-64-2025" viewBox="0 0 64 64"><path fill="#00005B" d="M52.522 0H11.478C5.138 0 0 5.139 0 11.478v41.044C0 58.862 5.139 64 11.478 64h41.044C58.862 64 64 58.861 64 52.522V11.478C64 5.138 58.861 0 52.522 0"/><path fill="#99F" d="M24.68 16.988c8.367 0 13.078 3.92 13.078 10.48 0 7.662-6.385 10.744-12.373 10.744h-4.051v8.278h-8.19V16.988zm-3.346 7.002v7.22h3.61c2.51 0 4.272-1.012 4.272-3.566 0-2.333-1.497-3.654-4.095-3.654zM49.176 23.109c1.806 0 3.259.22 3.92.44v5.989c-.53-.133-1.542-.22-2.378-.22-1.63 0-2.555.132-3.391.44V46.49H39.62V25.046c2.774-1.233 5.548-1.937 9.555-1.937"/></svg>