<svg xmlns="http://www.w3.org/2000/svg" viewBox="0 0 240 234"><path fill="#00005b" d="M42.5 0h155A42.464 42.464 0 0 1 240 42.5v149a42.464 42.464 0 0 1-42.5 42.5h-155A42.464 42.464 0 0 1 0 191.5v-149A42.464 42.464 0 0 1 42.5 0Z"/><g fill="#99f"><path d="M60.7 165.4H41.5c-.9 0-1.3-.5-1.3-1.4V61.5c0-1 .3-1.4 1-1.4 3.8-.1 7-.2 9.7-.2l7.7-.2c2.5-.1 5-.1 7.7-.1H75c9 0 16.6 1.3 22.7 3.8a30.605 30.605 0 0 1 14.1 11c3.3 4.7 4.9 10.6 4.9 17.6a27.912 27.912 0 0 1-2.6 12 30.367 30.367 0 0 1-7.1 9.6 33.588 33.588 0 0 1-10.5 6.5c1.1 1.4 2.6 3.5 4.5 6.4s4.1 6 6.4 9.5 4.6 7 6.9 10.6c2.3 3.5 4.4 6.8 6.3 9.8s3.3 5.4 4.3 7.1a1.575 1.575 0 0 1 .4 1.3.563.563 0 0 1-.7.6h-23.4a5.9 5.9 0 0 1-1.4-.2 2.7 2.7 0 0 1-.8-.7c-1.2-1.7-2.7-4-4.4-6.8s-3.6-5.9-5.6-9.3-4-6.8-6-10.1-3.7-6.3-5.2-9a9.1 9.1 0 0 0-1.8-2.1 3.606 3.606 0 0 0-2-.6H62v37.5a1.208 1.208 0 0 1-1.3 1.3Zm1.3-58h12.6a32 32 0 0 0 10.6-1.5 13.152 13.152 0 0 0 6.8-4.8 12.616 12.616 0 0 0 2.4-8c0-4.9-1.8-8.5-5.5-10.7s-8.5-3.3-14.5-3.3c-2.6 0-5 0-7.2.1s-4 .1-5.2.2ZM201.6 86.5v61c0 2.7 0 5.1.1 7.2s.2 3.9.3 5.5.3 2.9.4 3.9c.1.9-.3 1.3-1.1 1.3H184a1.881 1.881 0 0 1-1.9-1.1c-.2-.8-.4-1.6-.6-2.5a10.554 10.554 0 0 1-.2-2.5 28.459 28.459 0 0 1-11.3 6.2 41.826 41.826 0 0 1-11.1 1.5 33.575 33.575 0 0 1-10.9-1.7 20.841 20.841 0 0 1-8.5-5.5 24.93 24.93 0 0 1-5.6-9.7 45.582 45.582 0 0 1-2-14.2V86.7a1.13 1.13 0 0 1 1-1.3H153a1.13 1.13 0 0 1 1.3 1v47c0 4.4 1 7.9 2.9 10.4s5.2 3.8 9.7 3.8a19.889 19.889 0 0 0 6.8-1.2 21.169 21.169 0 0 0 5.6-3.3V86.5c0-.8.5-1.1 1.4-1.1h19.8a.937.937 0 0 1 1.1.8Z"/></g></svg>