<svg xmlns="http://www.w3.org/2000/svg" width="240" height="240" fill="none" class="stock-2025" viewBox="0 0 240 240"><path fill="#000B1D" d="M196.959 0H43.041C19.271 0 0 19.27 0 43.041V196.96C0 220.73 19.27 240 43.041 240H196.96C220.73 240 240 220.73 240 196.959V43.041C240 19.271 220.73 0 196.959 0"/><path fill="#fff" d="m126.439 68.494-.165 28.897c-6.275-4.788-18.824-10.073-34.18-10.073-9.082 0-12.715 2.973-12.715 7.1 0 4.129 2.807 5.78 14.861 9.248 31.704 9.247 39.795 20.145 39.795 36.822 0 21.962-18.164 35.502-46.565 35.502-17.008 0-29.887-4.128-39.795-9.908l.166-30.052c10.237 7.926 25.264 13.705 39.464 13.705 9.082 0 13.21-2.477 13.21-7.265s-4.293-7.101-16.017-10.238c-22.457-6.275-38.31-14.035-38.31-35.667 0-20.97 17.01-35.501 45.905-35.501 13.376 0 26.585 2.477 34.346 7.43M177.794 88.474h15.852v22.953h-15.852v29.391c0 7.927 3.303 10.899 8.917 10.899 1.816 0 4.458-.331 6.935-1.156l.165 22.787c-3.633 1.321-7.596 2.146-15.026 2.146-18.824 0-29.888-8.916-29.888-30.052v-34.015h-12.384V88.474h12.384V66.843h28.897z"/></svg>